<svg xmlns="http://www.w3.org/2000/svg" xmlns:xlink="http://www.w3.org/1999/xlink" id="Layer_1" x="0" y="0" enable-background="new 0 0 216 216" version="1.1" viewBox="0 0 216 216" xml:space="preserve"><style type="text/css">.st0{fill:#404040}.st1{fill:#2d2d2d}.st2{fill:#fff}</style><g><circle cx="106.5" cy="108.8" r="100.8" class="st0"/><g><g><g><defs><circle id="SVGID_1_" cx="106.5" cy="108.8" r="100.8"/></defs><clipPath id="SVGID_2_"><use overflow="visible" xlink:href="#SVGID_1_"/></clipPath></g></g></g></g><path d="M207.3,108.8c0-7.2-0.8-14.2-2.2-20.9l-67.6-40.6l-74,60.7l29.6,18.1l-56.7,28.2l89.7,53.4	C172.4,198.5,207.3,157.7,207.3,108.8z" class="st1"/><path d="M176.1,154.8H38.4c-2.2,0-4-1.8-4-4v-21.4c0-2.2,1.8-4,4-4h137.7c2.2,0,4,1.8,4,4v21.4	C180.1,153,178.3,154.8,176.1,154.8z" class="st2"/><rect width="21" height="6.3" x="46.5" y="137.3" class="st1"/><g><circle cx="146.1" cy="140" r="4.3" class="st1"/><circle cx="163.7" cy="140" r="4.3" class="st1"/></g><g><path d="M147.1,71.9c0.2-1.4,0.3-2.9,0.3-4.4c0-16.1-13.1-29.2-29.2-29.2c-10.9,0-20.4,6-25.4,14.9 c-2.3-0.9-4.7-1.4-7.3-1.4c-10.7,0-19.4,8.7-19.4,19.4c0,0.4,0,0.8,0,1.1C58.6,75,53,82.3,53,90.8c0,10.7,8.7,19.4,19.4,19.4h70.1 c10.6,0,19.4-8.7,19.4-19.4C161.9,81.7,155.6,74,147.1,71.9z" class="st2"/><g><g><rect width="4.7" height="15.4" x="125.9" y="95.4" class="st1"/></g><g><path d="M128.4,98c-0.3,0-0.7,0-1-0.1c-2.1-0.3-4-1.3-5.3-3s-1.9-3.8-1.6-5.9l0,0c0.5-4.4,4.5-7.5,8.9-7 c2.1,0.3,4,1.3,5.3,3s1.9,3.8,1.6,5.9C135.8,95,132.4,98,128.4,98z M125.6,89.6c-0.2,1.6,0.9,3,2.5,3.2s3-0.9,3.2-2.5 c0.1-0.8-0.1-1.5-0.6-2.1s-1.1-1-1.9-1.1C127.2,86.9,125.7,88.1,125.6,89.6L125.6,89.6z" class="st1"/></g><g><rect width="4.7" height="15.4" x="84.2" y="95.4" class="st1"/></g><g><path d="M86.6,97.9c-0.3,0-0.7,0-1-0.1c-4.4-0.5-7.5-4.5-7-8.9l0,0c0.3-2.1,1.3-4,3-5.3s3.8-1.9,5.9-1.6s4,1.3,5.3,3 s1.9,3.8,1.6,5.9C94,95,90.6,97.9,86.6,97.9z M83.7,89.6c-0.2,1.6,0.9,3,2.5,3.2c0.8,0.1,1.5-0.1,2.1-0.6s1-1.1,1.1-1.9 s-0.1-1.5-0.6-2.1s-1.1-1-1.9-1.1s-1.5,0.1-2.1,0.6S83.8,88.8,83.7,89.6L83.7,89.6z" class="st1"/></g><g><rect width="4.8" height="35.9" x="104.9" y="75.2" class="st1"/></g><g><path d="M107.4,76.4c-0.3,0-0.7,0-1-0.1c-4.4-0.5-7.5-4.5-7-8.9l0,0c0.5-4.4,4.5-7.5,8.9-7c2.1,0.3,4,1.3,5.3,3 c1.3,1.7,1.9,3.8,1.6,5.9s-1.3,4-3,5.3C110.9,75.8,109.2,76.4,107.4,76.4z M104.5,68c-0.2,1.6,0.9,3,2.5,3.2 c0.8,0.1,1.5-0.1,2.1-0.6s1-1.1,1.1-1.9s-0.1-1.5-0.6-2.1s-1.1-1-1.9-1.1C106.1,65.3,104.7,66.5,104.5,68L104.5,68z" class="st1"/></g></g></g></svg>