<svg xmlns="http://www.w3.org/2000/svg" xmlns:svg="http://www.w3.org/2000/svg" xmlns:xlink="http://www.w3.org/1999/xlink" id="svg2" width="64" height="64" display="inline" version="1.0"><defs id="defs4"><linearGradient id="linearGradient3213"><stop id="stop3215" offset="0" stop-color="#fff" stop-opacity=".22"/><stop id="stop3217" offset="1" stop-color="#fff" stop-opacity=".053"/></linearGradient><linearGradient id="linearGradient3227"><stop id="stop3229" offset="0" stop-color="#fff" stop-opacity=".136"/><stop id="stop3231" offset="1" stop-color="#3a3a3a" stop-opacity=".11"/></linearGradient><linearGradient id="linearGradient3284"><stop id="stop3286" offset="0" stop-color="#fff" stop-opacity=".629"/><stop id="stop3288" offset="1" stop-color="#a3a3a3" stop-opacity="0"/></linearGradient><linearGradient id="linearGradient3299"><stop id="stop3301" offset="0" stop-color="#fff" stop-opacity=".314"/><stop id="stop3303" offset="1" stop-color="#fff" stop-opacity=".157"/></linearGradient><linearGradient id="linearGradient3293"><stop id="stop3295" offset="0" stop-color="#fff" stop-opacity="1"/><stop id="stop3297" offset="1" stop-color="#000" stop-opacity=".022"/></linearGradient><linearGradient id="linearGradient3218"><stop id="stop3220" offset="0" stop-color="#fff" stop-opacity=".784"/><stop id="stop3222" offset="1" stop-color="#fff" stop-opacity="0"/></linearGradient><linearGradient id="linearGradient3204"><stop id="stop3206" offset="0" stop-color="#fff" stop-opacity="0"/><stop id="stop3208" offset="1" stop-color="#fff" stop-opacity=".251"/></linearGradient><linearGradient id="linearGradient3162"><stop id="stop3164" offset="0" stop-color="#424242" stop-opacity=".138"/><stop id="stop3166" offset="1" stop-color="#f0f0f0" stop-opacity="0"/></linearGradient><linearGradient id="linearGradient3210" x1="32" x2="32" y1="32" y2="61" gradientUnits="userSpaceOnUse" xlink:href="#linearGradient3204"/><linearGradient id="linearGradient3224" x1="24" x2="24" y1="2" y2="31.571" gradientUnits="userSpaceOnUse" xlink:href="#linearGradient3218"/><linearGradient id="linearGradient3267" x1="32" x2="32" y1="64" y2="0" gradientUnits="userSpaceOnUse" xlink:href="#linearGradient3162"/><linearGradient id="linearGradient3271" x1="24" x2="24" y1="2" y2="31.571" gradientUnits="userSpaceOnUse" xlink:href="#linearGradient3218"/><radialGradient id="radialGradient3283" cx="32" cy="32" r="29" fx="32" fy="32" gradientUnits="userSpaceOnUse" xlink:href="#linearGradient3299"/><radialGradient id="radialGradient2210" cx="32" cy="32" r="29" fx="32" fy="32" gradientTransform="matrix(0.962963,0,0,0.9444445,1.1851851,1.7777776)" gradientUnits="userSpaceOnUse" xlink:href="#linearGradient3213"/><radialGradient id="radialGradient4673" cx="24" cy="-2.052" r="18" fx="24" fy="-2.052" gradientTransform="matrix(1.8095239,-6.9383612e-8,5.1646454e-8,1.8333332,-19.428571,1.7619038)" gradientUnits="userSpaceOnUse" xlink:href="#linearGradient3218"/><radialGradient id="radialGradient4675" cx="24" cy="-.727" r="18" fx="24" fy="-.727" gradientTransform="matrix(1.8095238,0,0,1.8333332,-19.42857,-1.6666668)" gradientUnits="userSpaceOnUse" xlink:href="#linearGradient3218"/><radialGradient id="radialGradient3233" cx="48.656" cy="51.519" r="29.444" fx="48.656" fy="51.519" gradientUnits="userSpaceOnUse" xlink:href="#linearGradient3227"/></defs><metadata id="metadata7"/><g id="LayerBase" display="none"><g id="ButtonBase" fill="none" stroke="url(#radialGradient3233)" stroke-dasharray="none" stroke-miterlimit="4" stroke-width="2.177" display="inline" transform="matrix(0.6792453,0,0,0.6792453,10.26415,10.26415)"><path id="path3257" fill="none" fill-opacity="1" fill-rule="evenodd" stroke="url(#radialGradient3233)" stroke-dasharray="none" stroke-linecap="round" stroke-linejoin="round" stroke-miterlimit="4" stroke-opacity="1" stroke-width="2.177" d="M 61.444443,32 A 29.444443,29.444443 0 1 1 60.441148,24.379217" opacity="1"/><path id="path3259" fill="none" fill-opacity="1" fill-rule="evenodd" stroke="url(#radialGradient3233)" stroke-dasharray="none" stroke-linecap="round" stroke-linejoin="round" stroke-miterlimit="4" stroke-opacity="1" stroke-width="2.757" d="M 63,32 A 31,31 0 1 1 1,32 A 31,31 0 1 1 63,32 z" opacity="1" transform="matrix(0.9498207,0,0,0.9498207,1.6057361,1.6057361)"/><path id="path3281" fill="none" fill-opacity=".627" fill-rule="evenodd" stroke="#2b2b2b" stroke-dasharray="none" stroke-linecap="round" stroke-linejoin="round" stroke-miterlimit="4" stroke-opacity=".502" stroke-width="1.929" d="M 62,32 A 30,30 0 1 1 2,32 A 30,30 0 1 1 62,32 z" opacity="1" transform="matrix(0.9,0,0,0.9,3.1999999,3.1999999)"/></g></g><g id="LayerPressed" display="inline"><g id="ButtonPressedBase" transform="matrix(0.6792453,0,0,0.6792453,10.26415,10.26415)"><rect id="rect4724" width="64" height="64" x="0" y="0" fill="none" fill-opacity="1" stroke="none" stroke-dasharray="none" stroke-miterlimit="4" stroke-opacity="1" stroke-width="1" opacity="1"/><path id="path3263" fill="url(#radialGradient2210)" fill-opacity="1" fill-rule="evenodd" stroke="none" stroke-dasharray="none" stroke-linecap="round" stroke-linejoin="round" stroke-miterlimit="4" stroke-opacity="1" stroke-width=".1" d="M 61,32 A 29,29 0 1 1 3,32 A 29,29 0 1 1 61,32 z" opacity="1" transform="matrix(0.9310345,0,0,0.9310345,2.2068967,2.2068968)"/><path id="path3209" fill="#fff" fill-opacity="0" fill-rule="evenodd" stroke="none" stroke-dasharray="none" stroke-linecap="round" stroke-linejoin="round" stroke-miterlimit="4" stroke-opacity="1" stroke-width=".1" d="M 42,20 A 18,18 0 1 1 6,20 A 18,18 0 1 1 42,20 z" display="inline" opacity="1" transform="matrix(1.4166666,0,0,1.4027778,-1.9999995,3.1944446)"/></g><g id="ButtonPressedOverlay" opacity=".567" transform="matrix(0.6792453,0,0,0.6792453,10.26415,12.739024)"><rect id="rect3182" width="64" height="64" x="0" y="0" fill="none" fill-opacity="1" stroke="none" stroke-dasharray="none" stroke-miterlimit="4" stroke-opacity="1" stroke-width="1" opacity="1"/><path id="path3226" fill="url(#radialGradient4675)" fill-opacity="1" fill-rule="evenodd" stroke="none" stroke-dasharray="none" stroke-linecap="round" stroke-linejoin="round" stroke-miterlimit="4" stroke-opacity="1" stroke-width=".1" d="M 42,20 A 18,18 0 1 1 6,20 A 18,18 0 1 1 42,20 z" display="inline" opacity=".475" transform="matrix(1.1666668,0,0,1,3.9999975,4.9999993)"/></g></g><g id="LayerNormal" display="none"><g id="ButtonNormalBase" display="inline" transform="matrix(0.6792453,0,0,0.7011564,10.26415,10.26415)"><rect id="rect4730" width="64" height="64" x="0" y="0" fill="none" fill-opacity="1" stroke="none" stroke-dasharray="none" stroke-miterlimit="4" stroke-opacity="1" stroke-width="1" opacity="1" ry="0"/><path id="path4734" fill="#fff" fill-opacity=".125" fill-rule="evenodd" stroke="none" stroke-dasharray="none" stroke-linecap="round" stroke-linejoin="round" stroke-miterlimit="4" stroke-opacity="1" stroke-width=".1" d="M 42,20 A 18,18 0 1 1 6,20 A 18,18 0 1 1 42,20 z" display="inline" opacity="1" transform="matrix(1.4722222,0,0,1.4444445,-3.3333336,2.1111101)"/></g><g id="ButtonNormalOverlay" display="inline" transform="matrix(0.6792453,0,0,0.6792453,10.528302,9.6981123)"><rect id="rect2202" width="64" height="64" x="0" y="0" fill="none" fill-opacity="1" stroke="none" stroke-dasharray="none" stroke-miterlimit="4" stroke-opacity="1" stroke-width="1" opacity="1" ry="0"/><path id="path3188" fill="url(#radialGradient4673)" fill-opacity="1" fill-rule="evenodd" stroke="none" stroke-dasharray="none" stroke-linecap="round" stroke-linejoin="round" stroke-miterlimit="4" stroke-opacity="1" stroke-width=".1" d="M 42,20 A 18,18 0 1 1 6,20 A 18,18 0 1 1 42,20 z" opacity="1" transform="matrix(1.1666667,0,0,1.0000001,3.9999997,3.9999987)"/></g></g><g id="LayerDisabled" display="none"><g id="ButtonDisabledOverlay" transform="matrix(0.6792453,0,0,0.6792453,10.26415,10.26415)"><rect id="rect2247" width="64" height="64" x="0" y="0" fill="none" fill-opacity="1" stroke="none" stroke-dasharray="none" stroke-miterlimit="4" stroke-opacity="1" stroke-width="1" opacity="1" ry="0"/><path id="path2250" fill="gray" fill-opacity=".174" fill-rule="evenodd" stroke="none" stroke-dasharray="none" stroke-linecap="round" stroke-linejoin="round" stroke-miterlimit="4" stroke-opacity="1" stroke-width=".1" d="M 62,32 A 30,30 0 1 1 2,32 A 30,30 0 1 1 62,32 z" opacity="1" transform="matrix(0.9,0,0,0.9,3.2,3.2)"/></g></g><g id="LayerButtonHover" display="none"><g id="ButtonHoverOverlay" transform="matrix(0.6792453,0,0,0.6792453,10.26415,10.26415)"><rect id="rect2209" width="64" height="64" x="0" y="0" fill="none" fill-opacity="1" stroke="none" stroke-dasharray="none" stroke-miterlimit="4" stroke-opacity="1" stroke-width="1" opacity="1" ry="0"/><path id="path2211" fill="#fff" fill-opacity=".04" fill-rule="evenodd" stroke="none" stroke-dasharray="none" stroke-linecap="round" stroke-linejoin="round" stroke-miterlimit="4" stroke-opacity="1" stroke-width=".1" d="M 62,32 A 30,30 0 1 1 2,32 A 30,30 0 1 1 62,32 z" opacity="1" transform="matrix(0.9,0,0,0.9,3.2,3.2)"/></g></g></svg>